<?xml version="1.0" encoding="utf-8"?><!-- Uploaded to: SVG Repo, www.svgrepo.com, Generator: SVG Repo Mixer Tools -->
<svg version="1.1" id="Uploaded to svgrepo.com" xmlns="http://www.w3.org/2000/svg" xmlns:xlink="http://www.w3.org/1999/xlink" 
	 width="800px" height="800px" viewBox="0 0 32 32" xml:space="preserve">
<style type="text/css">
	.feather_een{fill:#0B1719;}
</style>
<path class="feather_een" d="M26.384,18.019c-0.756-3.559-2.21-6.951-4.337-9.95l-0.001,0c0.058-0.993-0.05-3.253-1.842-5.508
	c-0.175-0.22-0.504-0.239-0.714-0.053c-0.196,0.173-0.231,0.472-0.068,0.676C21.012,5.187,21.098,7.168,21.05,8H16.5
	C16.224,8,16,8.224,16,8.5C16,8.776,16.224,9,16.5,9h1.869c1.514,4.216,1.406,8.858-0.369,13h-3.917l-1.693-6.504
	C12.16,14.615,11.365,14,10.454,14H4c-1.105,0-2,0.895-2,2v3.537C0.775,20.635,0,22.225,0,24c0,3.314,2.686,6,6,6
	c2.611,0,4.827-1.671,5.651-4h8.698c0.825,2.329,3.04,4,5.651,4c3.314,0,6-2.686,6-6C32,20.816,29.518,18.218,26.384,18.019z M4,15
	h6.454c0.455,0,0.853,0.308,0.968,0.748L11.487,16H3C3,15.449,3.449,15,4,15z M6,29c-2.757,0-5-2.243-5-5s2.243-5,5-5s5,2.243,5,5
	S8.757,29,6,29z M20.09,25h-8.18c0.055-0.326,0.09-0.659,0.09-1c0-3.314-2.686-6-6-6c-1.094,0-2.117,0.298-3,0.809V17h8.748l1.562,6
	h5.35l0.26-0.606c1.817-4.24,1.995-9.044,0.532-13.394h2.028c1.891,2.759,3.189,5.818,3.895,9.033C22.354,18.346,20,20.898,20,24
	C20,24.341,20.035,24.674,20.09,25z M26,29c-2.757,0-5-2.243-5-5s2.243-5,5-5s5,2.243,5,5S28.757,29,26,29z M26,21
	c-1.657,0-3,1.343-3,3s1.343,3,3,3s3-1.343,3-3S27.657,21,26,21z M26,26c-1.103,0-2-0.897-2-2s0.897-2,2-2s2,0.897,2,2
	S27.103,26,26,26z M6,21c-1.657,0-3,1.343-3,3s1.343,3,3,3s3-1.343,3-3S7.657,21,6,21z M6,26c-1.103,0-2-0.897-2-2s0.897-2,2-2
	s2,0.897,2,2S7.103,26,6,26z"/>
</svg>