<?xml version="1.0" encoding="utf-8"?><!-- Uploaded to: SVG Repo, www.svgrepo.com, Generator: SVG Repo Mixer Tools -->
<svg version="1.1" id="Uploaded to svgrepo.com" xmlns="http://www.w3.org/2000/svg" xmlns:xlink="http://www.w3.org/1999/xlink" 
	 width="30" height="30" viewBox="0 0 32 32" xml:space="preserve">
<style type="text/css">
	.stone_een{fill:#877EFF;}
</style>
<path class="stone_een" d="M12.521,16H2c0-1.105,0.895-2,2-2h6.454c0.91,0,1.706,0.615,1.935,1.496L12.521,16z M26,22
	c-1.103,0-2,0.897-2,2s0.897,2,2,2s2-0.897,2-2S27.103,22,26,22z M6,22c-1.103,0-2,0.897-2,2s0.897,2,2,2s2-0.897,2-2S7.103,22,6,22
	z M32,24c0,3.314-2.686,6-6,6c-2.611,0-4.827-1.671-5.651-4h-8.698c-0.825,2.329-3.04,4-5.651,4c-3.314,0-6-2.686-6-6
	c0-1.775,0.775-3.365,2-4.463V17h10.781l1.302,5H18c1.775-4.142,1.884-8.784,0.369-13H16.5C16.224,9,16,8.776,16,8.5
	C16,8.224,16.224,8,16.5,8h4.55c0.048-0.832-0.038-2.813-1.628-4.815c-0.162-0.205-0.127-0.503,0.068-0.676
	c0.211-0.186,0.539-0.167,0.714,0.053c1.792,2.255,1.9,4.515,1.842,5.508l0.001,0c2.128,2.999,3.581,6.391,4.337,9.95
	C29.518,18.218,32,20.816,32,24z M9,24c0-1.657-1.343-3-3-3s-3,1.343-3,3s1.343,3,3,3S9,25.657,9,24z M29,24c0-1.657-1.343-3-3-3
	s-3,1.343-3,3s1.343,3,3,3S29,25.657,29,24z"/>
</svg>